<svg xmlns="http://www.w3.org/2000/svg" width="33.378" height="29.938" viewBox="0 0 33.378 29.938"><defs><style>.a{fill:#fca70c;}</style></defs><g transform="translate(-0.002)"><g transform="translate(0.002)"><path class="a" d="M23.563,78.679l-1.989,1.787c-.176.158-.177.155-.077.367a9.589,9.589,0,0,1,.813,5.791,9.464,9.464,0,0,1-3.224,5.749,9.5,9.5,0,0,1-7.662,2.312,9.291,9.291,0,0,1-5.66-2.816,9.464,9.464,0,0,1-2.689-8.4A9.368,9.368,0,0,1,7.024,77.1a9.512,9.512,0,0,1,7.213-1.7,9.448,9.448,0,0,1,3.885,1.53c.081.055.132.067.213-.008.4-.373.818-.738,1.227-1.105l.9-.81a12.66,12.66,0,1,0,3.183,3.611C23.608,78.641,23.586,78.659,23.563,78.679Z" transform="translate(-0.002 -67.777)"/><path class="a" d="M126.207.441a53.661,53.661,0,0,0-8.764,5.925,78.859,78.859,0,0,0-6.574,6.043c-1.322,1.354-2.6,2.748-3.823,4.2-.174.206-.346.414-.526.629l-3.073-4.26-3.4,3.4a82.831,82.831,0,0,1,5.908,8.077c.03-.052.054-.092.076-.132q1.239-2.328,2.7-4.52a78.378,78.378,0,0,1,8.693-10.786c1.342-1.407,2.731-2.77,4.129-4.122,1.621-1.567,3.319-3.051,5.066-4.476L127.13,0a10.19,10.19,0,0,0-.923.441Z" transform="translate(-93.752)"/></g></g></svg>